<?xml version="1.0" encoding="utf-8"?>
<!-- Photodiode icon by Arthur Shlain from Usefulicons.com -->
<svg xmlns="http://www.w3.org/2000/svg" xmlns:xlink="http://www.w3.org/1999/xlink" xml:space="preserve" version="1.1" x="0px" y="0px" viewBox="0 0 100 100" width="400px" height="400px"><path d="M66.3,32.5L63.8,32.5L63.8,47.8L35.6,31.6L33.8,32.6L33.8,48.8L5,48.8L5,51.3L33.8,51.3L33.8,67.4L35.6,68.4L63.8,52.2L63.8,67.5L66.3,67.5L66.3,51.3L95,51.3L95,48.8L66.3,48.8Z" stroke="none"></path><path d="M63.7,18.1L58.5,25.5L56.9,24.4L52.5,36.2L62.2,28.1L60.6,26.9L65.7,19.6Z" stroke="none"></path><path d="M51.3,20.4L49.6,19.3L45.3,31.2L55,23L53.3,21.9L58.5,14.5L56.4,13.1Z" stroke="none"></path></svg>